<?xml version="1.0" encoding="utf-8"?>
<!-- Generator: Adobe Illustrator 18.1.1, SVG Export Plug-In . SVG Version: 6.00 Build 0)  -->
<!DOCTYPE svg PUBLIC "-//W3C//DTD SVG 1.1//EN" "http://www.w3.org/Graphics/SVG/1.1/DTD/svg11.dtd">
<svg version="1.1" id="Layer_1" xmlns="http://www.w3.org/2000/svg" xmlns:xlink="http://www.w3.org/1999/xlink" x="0px" y="0px"
	 viewBox="0 88 69 73" enable-background="new 0 88 69 73" xml:space="preserve">
<path fill="#FF691D" d="M21.8,141.9c1.5-0.8,0.8-2.4,0.7-3.2c-0.1-0.9,0.9-1.5,1.4-1.4s0.5-0.3,0.3-0.5c-0.3-0.3-0.6-0.5-0.9-1.4
	c-0.2-0.5,0.2-1,0.6-1.4l0,0c0,0,0.3-0.3,0.5-0.4c0.2-0.1,0.6-0.3,0.9-0.6c0.3-0.4,1.4-1.8,1.1-2.3c-0.1-0.7-0.8-1.1-1.1-1.4
	c-0.1-0.1-0.1-0.1-0.2-0.2c-0.1-0.1-0.1-0.1-0.2-0.2c-0.5-0.6-1.1-1.4-1.3-2.4v-0.1c-0.1-0.6,0-1.2,0.3-1.8c0.5-0.7,1.4-1.1,2-1.3
	c0.2-0.1,0.4-0.2,0.7-0.3c0.8-0.3,2.6-1.1,3.7-1.5c2.1-0.9,4.5-2,5.3-2.4c1.4-0.7,2-1.8,2.4-3.1c0.3-0.7,0.6-1.2,0.9-1.7l0,0
	c0,0,1.2-1.6,2.8-3.3c1.3-1.4,4.3-4.5,9.3-6.4c1.2-0.5,2.5-0.8,3.7-1C50,100,44,97.7,37.4,97.7c-15.3,0.1-27.6,12.5-27.6,27.7
	c0,8,3.4,15.1,8.8,20.1c0.2-0.3,0.3-0.7,0.4-0.9C19.8,143.4,21,142.3,21.8,141.9z"/>
<path fill="#FF691D" d="M26,154.9c-11.9-4.6-20.3-16.1-20.3-29.5c0-17.5,14.2-31.6,31.7-31.6c9,0,17.1,3.7,22.8,9.6
	c1.8,0,3,0.2,3,0.2c0.3,0.1,0.5,0.1,0.8,0.2c0.1,0,0.2,0,0.3,0l0,0c1.7,0.4,3.2,0.8,4.8,1.4C62.3,94.9,50.7,88,37.4,88
	C16.8,88,0,104.7,0,125.3c0,16.8,11.1,31,26.4,35.7c0.2-0.3,0.3-0.6,0.5-0.8C28.6,157.6,27.5,156,26,154.9z"/>
</svg>
